<?xml version="1.0" encoding="UTF-8"?>
<svg width="35px" height="35px" viewBox="0 0 35 35" version="1.1" xmlns="http://www.w3.org/2000/svg" xmlns:xlink="http://www.w3.org/1999/xlink">
    <!-- Generator: Sketch 45.2 (43514) - http://www.bohemiancoding.com/sketch -->
    <title>Slices/Social/facebook</title>
    <desc>Created with Sketch.</desc>
    <defs></defs>
    <g id="Page-1" stroke="none" stroke-width="1" fill="none" fill-rule="evenodd">
        <g id="Desktop-HD" transform="translate(-1095.000000, -2056.000000)">
            <g id="Footer" transform="translate(0.000000, 2005.000000)">
                <g id="Social-Media" transform="translate(1035.000000, 51.000000)">
                    <g id="facebook" transform="translate(60.000000, 0.000000)">
                        <rect id="Path" fill="#FFFFFF" x="12.6" y="4.2" width="16.1" height="30.8"></rect>
                        <path d="M30.283731,0 L4.71652571,0 C2.11180685,0 0.000171149144,2.11153459 0.000171149144,4.71631995 L0.000171149144,30.2835088 C0.000171149144,32.8882942 2.11172123,34.9998288 4.71652571,34.9998288 L17.3261494,34.9998288 L17.3476399,22.4927835 L14.0982912,22.4927835 C13.6760154,22.4927835 13.3332802,22.1513352 13.3316535,21.7290625 L13.3160707,17.6975229 C13.3144439,17.2729385 13.6582065,16.9278942 14.082794,16.9278942 L17.326235,16.9278942 L17.326235,13.0324031 C17.326235,8.51172246 20.0872096,6.0501776 24.1199774,6.0501776 L27.4291742,6.0501776 C27.852563,6.0501776 28.1958975,6.39342398 28.1958975,6.81689531 L28.1958975,10.2163102 C28.1958975,10.6396103 27.8528199,10.982771 27.4296023,10.9830279 L25.3987915,10.9839697 C23.2056459,10.9839697 22.7809728,12.0261236 22.7809728,13.5555349 L22.7809728,16.9279798 L27.6000709,16.9279798 C28.0592487,16.9279798 28.4155117,17.3289333 28.3614002,17.7849399 L27.8835573,21.8164794 C27.8378364,22.2022784 27.510684,22.4929548 27.122228,22.4929548 L22.8024633,22.4929548 L22.7809728,35 L30.2839022,35 C32.8886211,35 35.0001711,32.8884654 35.0001711,30.2837657 L35.0001711,4.71631995 C35.0000855,2.11153459 32.8885354,0 30.283731,0 Z" id="Shape" fill="#475993" fill-rule="nonzero"></path>
                    </g>
                </g>
            </g>
        </g>
    </g>
</svg>