<?xml version="1.0" encoding="UTF-8"?>
<svg width="35px" height="35px" viewBox="0 0 35 35" version="1.1" xmlns="http://www.w3.org/2000/svg" xmlns:xlink="http://www.w3.org/1999/xlink">
    <!-- Generator: Sketch 45.2 (43514) - http://www.bohemiancoding.com/sketch -->
    <title>Slices/Social/twitter</title>
    <desc>Created with Sketch.</desc>
    <defs></defs>
    <g id="Page-1" stroke="none" stroke-width="1" fill="none" fill-rule="evenodd">
        <g id="Desktop-HD" transform="translate(-1035.000000, -2056.000000)" fill-rule="nonzero" fill="#76A9EA">
            <g id="Footer" transform="translate(0.000000, 2005.000000)">
                <g id="Social-Media" transform="translate(1035.000000, 51.000000)">
                    <g id="twitter" transform="translate(0.000000, 2.000000)">
                        <path d="M34.3725547,3.4216545 C33.5965085,3.76577859 32.7909124,4.03726277 31.9642822,4.23380779 C32.8751338,3.36826034 33.5599757,2.28564477 33.9463382,1.07725061 L33.9463382,1.07725061 C34.056618,0.732274939 33.6819221,0.433965937 33.3704136,0.618673966 L33.3704136,0.618673966 C32.220438,1.30079075 30.9817275,1.81250608 29.688601,2.13976886 C29.6135766,2.15875912 29.5361679,2.168382 29.4585036,2.168382 C29.2229562,2.168382 28.9939659,2.08092457 28.8138564,1.92218978 C27.4380414,0.709622871 25.6685401,0.0418126521 23.8314234,0.0418126521 C23.036472,0.0418126521 22.2338564,0.165717762 21.4458029,0.410121655 C19.0041484,1.16743309 17.1201946,3.18150852 16.5291119,5.66642336 C16.3073601,6.59847932 16.2473236,7.53138686 16.3505353,8.43917275 C16.3623723,8.54349148 16.3130657,8.6163017 16.2826642,8.65045012 C16.2292701,8.7103163 16.1535645,8.74463504 16.0749635,8.74463504 C16.0661922,8.74463504 16.0571655,8.74420925 16.0482238,8.74335766 C10.703528,8.24680049 5.88391727,5.67187348 2.47716545,1.4929927 L2.47716545,1.4929927 C2.30344282,1.27984185 1.97030414,1.3059854 1.83183698,1.54349148 L1.83183698,1.54349148 C1.16470803,2.68801703 0.812153285,3.99706813 0.812153285,5.32911192 C0.812153285,7.37052311 1.63231144,9.2943309 3.05692214,10.6968005 C2.45783455,10.5547567 1.8779927,10.3310462 1.3393674,10.0318856 L1.3393674,10.0318856 C1.07878345,9.88711679 0.758163017,10.0731873 0.754501217,10.3712409 L0.754501217,10.3712409 C0.717201946,13.4038929 2.49274939,16.1023844 5.15257908,17.3175061 C5.0990146,17.3187835 5.04545012,17.3193796 4.99180049,17.3193796 C4.57018248,17.3193796 4.14328467,17.278674 3.72311436,17.1983698 L3.72311436,17.1983698 C3.42965937,17.1423358 3.18312652,17.4207178 3.27424574,17.7052311 L3.27424574,17.7052311 C4.13757908,20.4005718 6.458309,22.3873114 9.23548662,22.8383942 C6.93059611,24.3856326 4.24649635,25.2017883 1.45288321,25.2017883 L0.581970803,25.2012774 C0.31363747,25.2012774 0.0866909976,25.3761922 0.0183090024,25.6360949 C-0.0490510949,25.8920803 0.0750243309,26.1621168 0.303844282,26.295219 C3.45180049,28.1272263 7.04249392,29.0954745 10.6893066,29.0954745 C13.8814599,29.0954745 16.8674453,28.461983 19.5644039,27.2127129 C22.0368005,26.0674209 24.221618,24.4302555 26.0581387,22.346691 C27.7689659,20.4057664 29.1068005,18.1651703 30.0343431,15.6872384 C30.9185401,13.3252068 31.3858881,10.8048662 31.3858881,8.39863747 L31.3858881,8.2840146 C31.3858029,7.89765207 31.5605474,7.53411192 31.8654136,7.28664234 C33.0222871,6.34734793 34.029708,5.2416545 34.8595742,4.00030414 L34.8595742,4.00030414 C35.0786861,3.67253041 34.7331144,3.26172749 34.3725547,3.4216545 L34.3725547,3.4216545 Z" id="Shape"></path>
                    </g>
                </g>
            </g>
        </g>
    </g>
</svg>