<?xml version="1.0" encoding="UTF-8"?>
<svg width="219px" height="25px" viewBox="0 0 219 25" version="1.1" xmlns="http://www.w3.org/2000/svg" xmlns:xlink="http://www.w3.org/1999/xlink">
    <!-- Generator: Sketch 45.2 (43514) - http://www.bohemiancoding.com/sketch -->
    <title>Slices/Logo</title>
    <desc>Created with Sketch.</desc>
    <defs></defs>
    <g id="Page-1" stroke="none" stroke-width="1" fill="none" fill-rule="evenodd">
        <g id="Desktop-HD" transform="translate(-250.000000, -2055.000000)" fill="#FFFFFF">
            <g id="Footer" transform="translate(0.000000, 2005.000000)">
                <g id="Contact" transform="translate(250.000000, 50.000000)">
                    <g id="Logo">
                        <path d="M83.7751852,10.594 L84.4738889,9.138 C83.547037,8.536 82.277963,8.13 80.9803704,8.13 C78.812963,8.13 77.3442593,9.18 77.3442593,10.86 C77.3442593,14.346 82.7342593,13.128 82.7342593,15.312 C82.7342593,16.068 82.0355556,16.502 80.8662963,16.502 C79.7968519,16.502 78.5135185,15.998 77.4868519,15.074 L76.7596296,16.502 C77.7862963,17.426 79.2692593,18.056 80.8377778,18.056 C83.0337037,18.056 84.6022222,16.978 84.6022222,15.228 C84.6164815,11.7 79.2264815,12.848 79.2264815,10.706 C79.2264815,10.048 79.8681481,9.684 80.852037,9.684 C81.6077778,9.684 82.6914815,9.95 83.7751852,10.594 Z M91.7175926,10.552 L91.7175926,14.22 C91.7175926,15.522 90.9475926,16.516 89.6357407,16.544 C88.5377778,16.544 87.8675926,15.858 87.8675926,14.738 L87.8675926,10.552 L86.2277778,10.552 L86.2277778,15.186 C86.2277778,16.964 87.2687037,18.056 89.0083333,18.056 C90.2488889,18.042 91.2042593,17.58 91.7175926,16.544 L91.7175926,18 L93.3574074,18 L93.3574074,10.552 L91.7175926,10.552 Z M105.677407,10.496 C104.294259,10.496 103.281852,11.042 102.797037,12.288 C102.440556,11.154 101.513704,10.496 100.159074,10.496 C98.9042593,10.496 97.9346296,10.944 97.407037,11.994 L97.407037,10.552 L95.7814815,10.552 L95.7814815,18 L97.407037,18 L97.407037,14.318 C97.407037,13.016 98.2055556,12.036 99.5174074,11.994 C100.62963,11.994 101.299815,12.68 101.299815,13.814 L101.299815,18 L102.93963,18 L102.93963,14.318 C102.93963,13.016 103.723889,12.036 105.021481,11.994 C106.133704,11.994 106.818148,12.68 106.818148,13.814 L106.818148,18 L108.457963,18 L108.457963,13.366 C108.457963,11.588 107.417037,10.496 105.677407,10.496 Z M120.549815,10.496 C119.166667,10.496 118.154259,11.042 117.669444,12.288 C117.312963,11.154 116.386111,10.496 115.031481,10.496 C113.776667,10.496 112.807037,10.944 112.279444,11.994 L112.279444,10.552 L110.653889,10.552 L110.653889,18 L112.279444,18 L112.279444,14.318 C112.279444,13.016 113.077963,12.036 114.389815,11.994 C115.502037,11.994 116.172222,12.68 116.172222,13.814 L116.172222,18 L117.812037,18 L117.812037,14.318 C117.812037,13.016 118.596296,12.036 119.893889,11.994 C121.006111,11.994 121.690556,12.68 121.690556,13.814 L121.690556,18 L123.33037,18 L123.33037,13.366 C123.33037,11.588 122.289444,10.496 120.549815,10.496 Z M126.339074,7.458 C125.797222,7.458 125.383704,7.864 125.383704,8.424 C125.383704,8.97 125.797222,9.376 126.339074,9.376 C126.880926,9.376 127.294444,8.97 127.294444,8.424 C127.294444,7.864 126.880926,7.458 126.339074,7.458 Z M125.526296,10.552 L125.526296,18 L127.151852,18 L127.151852,10.552 L125.526296,10.552 Z M133.454444,16.292 C133.012407,16.502 132.655926,16.614 132.313704,16.614 C131.80037,16.614 131.500926,16.376 131.500926,15.606 L131.500926,12.036 L133.73963,12.036 L133.73963,10.832 L131.500926,10.832 L131.500926,8.788 L129.87537,8.788 L129.87537,10.832 L128.805926,10.832 L128.805926,12.036 L129.87537,12.036 L129.87537,15.9 C129.87537,17.426 130.859259,18.07 132,18.07 C132.641667,18.07 133.269074,17.874 133.867963,17.524 L133.454444,16.292 Z M147.157593,18 L146.202222,15.788 L141.168704,15.788 L140.213333,18 L138.459444,18 L142.865556,8.2 L144.590926,8.2 L148.954259,18 L147.157593,18 Z M141.796111,14.318 L145.560556,14.318 L143.678333,9.964 L141.796111,14.318 Z M155.399444,7.612 L157.039259,7.612 L157.039259,18 L155.399444,18 L155.399444,16.726 C154.857593,17.594 153.945,18.07 152.732963,18.07 C150.551296,18.07 149.096852,16.516 149.096852,14.248 C149.096852,12.008 150.565556,10.482 152.704444,10.482 C153.930741,10.482 154.843333,10.972 155.399444,11.84 L155.399444,7.612 Z M153.075185,16.726 C154.444074,16.726 155.399444,15.718 155.399444,14.304 C155.399444,12.862 154.444074,11.854 153.075185,11.854 C151.706296,11.854 150.750926,12.876 150.736667,14.304 C150.750926,15.718 151.692037,16.726 153.075185,16.726 Z M158.336852,10.552 L161.274259,18 L162.971111,18 L165.88,10.552 L164.240185,10.552 L162.158333,16.418 L160.047963,10.552 L158.336852,10.552 Z M169.858333,10.496 C172.524815,10.496 173.608519,12.204 173.408889,14.892 L167.676667,14.892 C167.933333,16.04 168.831667,16.754 170.029444,16.754 C170.856481,16.754 171.612222,16.446 172.168333,15.886 L173.038148,16.796 C172.296667,17.594 171.212963,18.056 169.901111,18.056 C167.562593,18.056 166.022593,16.53 166.022593,14.29 C166.022593,12.036 167.60537,10.51 169.858333,10.496 Z M167.648148,13.716 L171.982963,13.716 C171.925926,12.512 171.113148,11.784 169.872593,11.784 C168.674815,11.784 167.819259,12.526 167.648148,13.716 Z M179.55463,10.496 C178.271296,10.496 177.301667,10.944 176.759815,11.98 L176.759815,10.552 L175.12,10.552 L175.12,18 L176.759815,18 L176.759815,14.038 C176.873889,12.876 177.658148,12.022 178.912963,12.008 C180.053704,12.008 180.738148,12.694 180.738148,13.814 L180.738148,18 L182.377963,18 L182.377963,13.366 C182.377963,11.588 181.322778,10.496 179.55463,10.496 Z M188.452407,16.292 C188.01037,16.502 187.653889,16.614 187.311667,16.614 C186.798333,16.614 186.498889,16.376 186.498889,15.606 L186.498889,12.036 L188.737593,12.036 L188.737593,10.832 L186.498889,10.832 L186.498889,8.788 L184.873333,8.788 L184.873333,10.832 L183.803889,10.832 L183.803889,12.036 L184.873333,12.036 L184.873333,15.9 C184.873333,17.426 185.857222,18.07 186.997963,18.07 C187.63963,18.07 188.267037,17.874 188.865926,17.524 L188.452407,16.292 Z M195.624815,10.552 L195.624815,14.22 C195.624815,15.522 194.854815,16.516 193.542963,16.544 C192.445,16.544 191.774815,15.858 191.774815,14.738 L191.774815,10.552 L190.135,10.552 L190.135,15.186 C190.135,16.964 191.175926,18.056 192.915556,18.056 C194.156111,18.042 195.111481,17.58 195.624815,16.544 L195.624815,18 L197.26463,18 L197.26463,10.552 L195.624815,10.552 Z M201.328519,12.036 L201.328519,10.552 L199.688704,10.552 L199.688704,18 L201.328519,18 L201.328519,14.108 C201.456852,12.834 202.426481,11.952 203.952222,12.036 L203.952222,10.496 C202.754444,10.496 201.841852,11.028 201.328519,12.036 Z M208.42963,10.496 C211.096111,10.496 212.179815,12.204 211.980185,14.892 L206.247963,14.892 C206.50463,16.04 207.402963,16.754 208.600741,16.754 C209.427778,16.754 210.183519,16.446 210.73963,15.886 L211.609444,16.796 C210.867963,17.594 209.784259,18.056 208.472407,18.056 C206.133889,18.056 204.593889,16.53 204.593889,14.29 C204.593889,12.036 206.176667,10.51 208.42963,10.496 Z M206.219444,13.716 L210.554259,13.716 C210.497222,12.512 209.684444,11.784 208.443889,11.784 C207.246111,11.784 206.390556,12.526 206.219444,13.716 Z M218.011852,12.428 L218.610741,11.238 C217.926296,10.762 216.913889,10.482 215.958519,10.482 C214.504074,10.482 213.163704,11.126 213.163704,12.638 C213.149444,15.326 217.142037,14.472 217.142037,15.998 C217.142037,16.558 216.600185,16.796 215.901481,16.796 C215.074444,16.796 214.019259,16.446 213.363333,15.872 L212.778704,17.02 C213.534444,17.692 214.717963,18.056 215.830185,18.056 C217.355926,18.056 218.739074,17.37 218.739074,15.844 C218.753333,13.142 214.717963,13.884 214.717963,12.512 C214.717963,11.98 215.188519,11.77 215.830185,11.77 C216.50037,11.77 217.341667,12.022 218.011852,12.428 Z" id="Summit-Adventures"></path>
                        <path d="M44.0464402,16.9463731 L28.2657437,5.20120523 L24.2774976,11.4096869 L22.0231124,19.7748318 L17.2602175,17.5679505 L13.4593344,21.0215291 L11.3130598,17.5679505 L0,25 L10.9247662,13.4229894 L17.3896487,6.87881844 L23.2368796,1.34234062 L25.56621,1.93516257 L26.5316675,0 L29.4786494,2.01351092 L44.0464402,16.9463731 Z M43.0755987,2.01351092 L61.1111111,17.5679505 L57.3993869,16.4429432 L41.2829446,4.66318544 L39.719864,4.86572426 L38.8506723,8.44891104 C37.0920451,6.74670979 35.9123048,5.58273669 34.1532468,3.88074381 L36.8336135,1.34234062 L38.5679051,0 L40.1286167,0 L43.0755987,2.01351092 Z" id="Fill-20"></path>
                    </g>
                </g>
            </g>
        </g>
    </g>
</svg>